<svg id="Capa_1" data-name="Capa 1" xmlns="http://www.w3.org/2000/svg" viewBox="0 0 96 86.96146">
  <title>soundExit</title>
  <g>
    <g>
      <path d="M63.66762,7.56673A10.62107,10.62107,0,0,0,50.66487,6.23932L21.40694,24.578H10.72646A10.647,10.647,0,0,0,.09139,35.21287V60.74961A10.64719,10.64719,0,0,0,10.72646,71.38468H21.34664L50.6645,89.76085a10.6276,10.6276,0,0,0,16.28294-9.011V15.25065a10.59122,10.59122,0,0,0-3.27982-7.68392ZM59.0727,47.98124V80.74951a2.76321,2.76321,0,0,1-2.7664,2.76419,2.73322,2.73322,0,0,1-1.45939-.42574L25.22445,64.5208a6.6244,6.6244,0,0,0-3.51806-1.01141H10.72646a2.76,2.76,0,0,1-2.76-2.76V35.21287a2.75993,2.75993,0,0,1,2.76-2.75978H21.76687a6.62428,6.62428,0,0,0,3.51788-1.01141l29.562-18.52948a2.73076,2.73076,0,0,1,1.4594-.42574,2.7635,2.7635,0,0,1,2.7664,2.76438v32.7304Z" transform="translate(0.00052 -4.51926)"/>
      <path d="M56.3063,91.48072a10.70418,10.70418,0,0,1-5.6907-1.6423L21.32017,71.47622H10.72646A10.73881,10.73881,0,0,1-.00052,60.74961V35.21287a10.739,10.739,0,0,1,10.727-10.7268H21.38065L50.616,6.16156a10.71918,10.71918,0,0,1,16.42338,9.08909V80.74951a10.72947,10.72947,0,0,1-10.733,10.73121ZM10.72646,24.6699A10.555,10.555,0,0,0,.18331,35.21287V60.74961A10.55512,10.55512,0,0,0,10.72646,71.29277H21.37311l.02243.014L50.7134,89.6829a10.53568,10.53568,0,0,0,16.14213-8.933V15.25065A10.53712,10.53712,0,0,0,50.71376,6.31726L21.4334,24.6699ZM56.3063,83.60562a2.83926,2.83926,0,0,1-1.50829-.4399l-29.62246-18.567a6.52458,6.52458,0,0,0-3.46916-.99744H10.72646a2.85508,2.85508,0,0,1-2.85187-2.85187V35.21287a2.85493,2.85493,0,0,1,2.85187-2.85169H21.76687a6.52445,6.52445,0,0,0,3.469-.99744L54.798,12.83426a2.84646,2.84646,0,0,1,4.36661,2.41639V80.74933A2.8606,2.8606,0,0,1,56.3063,83.60562ZM10.72646,32.545a2.67093,2.67093,0,0,0-2.668,2.66787V60.74961a2.67108,2.67108,0,0,0,2.668,2.66805H21.70639A6.70935,6.70935,0,0,1,25.27317,64.443L54.89562,83.01a2.66272,2.66272,0,0,0,4.08517-2.26051V15.25065A2.66272,2.66272,0,0,0,54.89562,12.99L25.33328,31.51962a6.71014,6.71014,0,0,1-3.5666,1.02538Z" transform="translate(0.00052 -4.51926)"/>
    </g>
    <g>
      <path d="M77.99189,28.77528a3.93751,3.93751,0,1,0-7.05174,3.50557,35.5189,35.5189,0,0,1,3.49122,15.74028A35.40256,35.40256,0,0,1,70.8407,63.95977a3.93752,3.93752,0,1,0,7.02454,3.55979,43.29763,43.29763,0,0,0,4.44124-19.49843A43.41512,43.41512,0,0,0,77.99189,28.77528Z" transform="translate(0.00052 -4.51926)"/>
      <path d="M74.34957,69.77014a3.98909,3.98909,0,0,1-1.818-.43585,4.0343,4.0343,0,0,1-1.773-5.41589,35.3093,35.3093,0,0,0,3.58075-15.89709,35.42881,35.42881,0,0,0-3.48148-15.69947,4.02939,4.02939,0,1,1,7.21628-3.58737A43.5072,43.5072,0,0,1,82.398,48.02131a43.39151,43.39151,0,0,1-4.45116,19.54A4.01354,4.01354,0,0,1,74.34957,69.77014ZM74.4628,26.6815a3.84627,3.84627,0,0,0-3.44049,5.55817,35.61214,35.61214,0,0,1,3.501,15.78127,35.49443,35.49443,0,0,1-3.6006,15.98018,3.85,3.85,0,0,0,1.69175,5.16882A3.8431,3.8431,0,0,0,77.78307,67.478,43.20642,43.20642,0,0,0,82.21438,48.021a43.3249,43.3249,0,0,0-4.30484-19.205A3.82613,3.82613,0,0,0,74.4628,26.6815Z" transform="translate(0.00052 -4.51926)"/>
    </g>
    <g>
      <path d="M83.92469,16.22162a3.93747,3.93747,0,0,0-1.77318,5.27875,59.68741,59.68741,0,0,1,5.88132,26.452A59.49924,59.49924,0,0,1,81.98275,74.7408a3.93743,3.93743,0,1,0,7.02454,3.55941,67.39294,67.39294,0,0,0,6.90065-30.34783,67.59044,67.59044,0,0,0-6.70469-29.95776A3.937,3.937,0,0,0,83.92469,16.22162Z" transform="translate(0.00052 -4.51926)"/>
      <path d="M85.49181,80.55061a4.03017,4.03017,0,0,1-3.59142-5.85155,59.40654,59.40654,0,0,0,6.04016-26.74687,59.5969,59.5969,0,0,0-5.87159-26.411,4.03389,4.03389,0,0,1,1.81455-5.40191,4.02639,4.02639,0,0,1,5.40173,1.81436,67.68168,67.68168,0,0,1,6.71424,29.99856,67.48417,67.48417,0,0,1-6.91057,30.3892A4.01174,4.01174,0,0,1,85.49181,80.55061Zm.18272-64.64976a3.8466,3.8466,0,0,0-3.441,5.55853,59.77825,59.77825,0,0,1,5.89107,26.493,59.58856,59.58856,0,0,1-6.06,26.82977A3.84549,3.84549,0,1,0,88.925,78.25867a67.30214,67.30214,0,0,0,6.89072-30.30628,67.50015,67.50015,0,0,0-6.69494-29.91677A3.82549,3.82549,0,0,0,85.67453,15.90085Z" transform="translate(0.00052 -4.51926)"/>
    </g>
  </g>
</svg>
